# xmcd
#
# Track frame offsets:
#        182
#        26367
#        36522
#        54812
#        71647
#        80977
#        97895
#        113247
#        136395
#        140200
#        154595
#        170555
#        187022
#        205727
#        231392
#        255345
#        283700
#        296225
#        311935
#
# Disc length: 4346 seconds
#
# Revision: 0
# Processed by: cddbd v1.5PL3 Copyright (c) Steve Scherf et al.
# Submitted via: ExactAudioCopy v0.95a3
#
DISCID=2310f813
DTITLE=Rhythm Makers - Soul On Your Side
DYEAR=1993
DGENRE=Funk
TTITLE0=Zone
TTITLE1=Can You Feel It (Part 1)
TTITLE2=You Better Believe It
TTITLE3=Soul On Your Side
TTITLE4=Funk-N-You
TTITLE5=Street Dreamin'
TTITLE6=You're My Last Girl
TTITLE7=Monterey
TTITLE8=Can You Feel It (Part 2)
TTITLE9=Touch
TTITLE10=Memories Of You
TTITLE11=Prime You
TTITLE12=At The Hop
TTITLE13=Zone
TTITLE14=Position
TTITLE15=Wonderful
TTITLE16=Lover's Lane
TTITLE17=You're Never To Old (To Get On Down)
TTITLE18=How Much I Love You
EXTD=
EXTT0=
EXTT1=
EXTT2=
EXTT3=
EXTT4=
EXTT5=
EXTT6=
EXTT7=
EXTT8=
EXTT9=
EXTT10=
EXTT11=
EXTT12=
EXTT13=
EXTT14=
EXTT15=
EXTT16=
EXTT17=
EXTT18=
PLAYORDER=
